:version 1.10
:name ASF
:units
  mass 1
  length 1
  angle deg
:documentation
  ASF file generated by Kaydara
:root
  axis xyz
  order  tx ty tz rx ry rz
  position 0 0 0
  orientation 0 0 0
:bonedata
  begin
    id 1
    name RightUpLegDummy
    direction -0.718183 -0.695806 0.00816078
    length 4.904
    axis 0 0 0 xyz
  end
  begin
    id 2
    name RightUpLeg
    direction 3.53989e-006 -0.995788 0.0916897
    length 17.4976
    axis -3.49089 -0.000906621 0.000287158 xyz
    dof rx ry rz
  end
  begin
    id 3
    name RightLeg
    direction 0.00371093 -0.995096 -0.0988418
    length 16.5821
    axis 3.68512 0.0193738 -0.131023 xyz
    dof rx ry rz
  end
  begin
    id 4
    name RightFoot
    direction 0.000791514 -0.46099 0.887405
    length 3.77069
    axis 4.84075e-005 -0.120479 -0.188788 xyz
    dof rx ry rz
  end
  begin
    id 5
    name RightToes
    direction 0.00124746 -0.014064 0.9999
    length 3.85082
    axis 0.00048216 0.542163 -0.142577 xyz
    dof rx ry rz
  end
  begin
    id 6
    name SpineDummy
    direction 8.36599e-015 1 5.97571e-016
    length 4.6813
    axis 0 0 0 xyz
  end
  begin
    id 7
    name Spine
    direction -4.63632e-008 0.999988 0.00495137
    length 10.1015
    axis -0.00138897 0.000121419 3.25764e-006 xyz
    dof rx ry rz
  end
  begin
    id 8
    name Spine1
    direction 0 0 0
    length 0
    axis -0.00138896 0.000121452 2.39764e-006 xyz
    dof rx ry rz
  end
  begin
    id 9
    name HEadDummy
    direction -3.91456e-008 0.999999 0.00127422
    length 3.43865
    axis -0.00138896 0.000121452 2.39764e-006 xyz
  end
  begin
    id 10
    name HEad
    direction -0.0222688 0.980941 0.193023
    length 5.12695
    axis -0.00138895 0.000121452 2.39764e-006 xyz
    dof rx ry rz
  end
  begin
    id 11
    name LeftShoulder1Dummy
    direction 0.998891 -0.0402508 -0.0244456
    length 3.5433
    axis -0.00138896 0.000121452 2.39764e-006 xyz
  end
  begin
    id 12
    name LeftShoulder1
    direction 0.99951 -0.000327743 0.0313091
    length 4.05031
    axis -0.00138896 0.000121452 2.39764e-006 xyz
    dof rx ry rz
  end
  begin
    id 13
    name LeftArm
    direction 0.998561 -0.00100054 -0.0536182
    length 10.3537
    axis -23.1894 0.134784 0.96751 xyz
    dof rx ry rz
  end
  begin
    id 14
    name LeftForeArm
    direction 0.998903 0.00866434 0.046012
    length 8.70632
    axis -9.91835 -0.06569 -0.177792 xyz
    dof rx ry rz
  end
  begin
    id 15
    name LeftHand
    direction 0.992938 -0.0411636 0.11126
    length 5.32135
    axis -0.00960227 -0.00340091 0.185174 xyz
    dof rx ry rz
  end
  begin
    id 16
    name RightShoulderDummy
    direction -0.998891 -0.0402509 -0.0244414
    length 3.5433
    axis -0.00138896 0.000121452 2.39764e-006 xyz
  end
  begin
    id 17
    name RightShoulder
    direction -0.99951 -0.000327827 0.0313133
    length 4.05031
    axis 0.215806 0.000203644 -0.00680151 xyz
    dof rx ry rz
  end
  begin
    id 18
    name RightArm
    direction -0.998573 -0.000999583 -0.053403
    length 10.3947
    axis -23.2009 -0.134239 -0.9641 xyz
    dof rx ry rz
  end
  begin
    id 19
    name RightForeArm
    direction -0.998898 0.00868026 0.0461306
    length 8.68355
    axis -9.92322 0.0658061 0.178869 xyz
    dof rx ry rz
  end
  begin
    id 20
    name RightHand
    direction -0.992843 -0.0414603 0.112003
    length 5.28593
    axis -0.00960634 0.00330671 -0.185226 xyz
    dof rx ry rz
  end
  begin
    id 21
    name LeftUpLegDummy
    direction 0.718183 -0.695806 0.00816078
    length 4.904
    axis 0 0 0 xyz
  end
  begin
    id 22
    name LeftUpLeg
    direction -6.8115e-006 -0.995793 0.0916336
    length 17.4976
    axis -3.48766 0.00143441 -0.000523914 xyz
    dof rx ry rz
  end
  begin
    id 23
    name LeftLeg
    direction -0.00601357 -0.995091 -0.0987824
    length 16.5821
    axis 3.68177 -0.00654038 -0.00028478 xyz
    dof rx ry rz
  end
  begin
    id 24
    name LeftFoot
    direction -0.00417578 -0.460984 0.887399
    length 3.77069
    axis 1.87232e-006 4.66002e-005 -8.1837e-006 xyz
    dof rx ry rz
  end
  begin
    id 25
    name LeftToes
    direction 0.00818058 -0.00485161 0.999955
    length 3.85048
    axis 1.06246e-005 4.65855e-005 -8.18502e-006 xyz
    dof rx ry rz
  end
:hierarchy
  begin
    root RightUpLegDummy SpineDummy LeftUpLegDummy
    RightUpLegDummy RightUpLeg
    RightUpLeg RightLeg
    RightLeg RightFoot
    RightFoot RightToes
    SpineDummy Spine
    Spine Spine1
    Spine1 HEadDummy LeftShoulder1Dummy RightShoulderDummy
    HEadDummy HEad
    LeftShoulder1Dummy LeftShoulder1
    LeftShoulder1 LeftArm
    LeftArm LeftForeArm
    LeftForeArm LeftHand
    RightShoulderDummy RightShoulder
    RightShoulder RightArm
    RightArm RightForeArm
    RightForeArm RightHand
    LeftUpLegDummy LeftUpLeg
    LeftUpLeg LeftLeg
    LeftLeg LeftFoot
    LeftFoot LeftToes
  end

:SAMPLES-PER-SECOND 24
:FULLY-SPECIFIED
:DEGREES
1
root  -6.71497 36.1957 21.0143 162.855 77.6981 165.007
RightUpLeg  1.68259 -20.1609 -26.0646
RightLeg  38.1358 2.38284 1.73436
RightFoot  -21.7466 1.59065 18.8407
RightToes  -1.74623e-010 0 -2.59999e-017
Spine  5.19854 2.39912 2.93676
Spine1  18.0224 4.32384 -6.20826
HEad  -41.8054 51.0246 -43.4278
LeftShoulder1  2.05423 -3.31269 -23.9044
LeftArm  22.9403 3.09746 -32.6549
LeftForeArm  -10.7717 -21.7558 -5.98313
LeftHand  0.14959 6.51753 16.2119
RightShoulder  3.21022 5.53551 29.5978
RightArm  -3.96682 0.24889 36.9741
RightForeArm  142.335 67.2108 153.463
RightHand  0.250973 -8.16139 -11.0103
LeftUpLeg  -18.6519 18.1313 12.8131
LeftLeg  44.7244 -6.80718 -6.72558
LeftFoot  -12.6412 -0.0709088 -12.9563
LeftToes  -6.27559e-011 -2.10356e-011 8.24929e-012
2
root  -6.32898 36.5843 20.9139 164.697 76.5231 167.497
RightUpLeg  3.86277 -22.0692 -27.4424
RightLeg  37.8633 4.51669 3.466
RightFoot  -18.7744 1.25941 21.7043
RightToes  -1.74623e-010 0 -2.59999e-017
Spine  4.49752 2.97208 4.13156
Spine1  18.9443 5.56135 -7.98048
HEad  -40.8558 49.489 -41.3059
LeftShoulder1  2.10629 -3.25362 -24.9906
LeftArm  13.1648 3.86722 -33.1619
LeftForeArm  -7.55421 -20.664 -6.30136
LeftHand  0.603028 8.31084 24.2938
RightShoulder  3.42509 5.75382 31.1085
RightArm  -3.78026 -4.05985 40.4829
RightForeArm  143.875 70.8133 148.547
RightHand  1.22529 -13.7194 -17.225
LeftUpLeg  -15.642 17.9359 13.0071
LeftLeg  40.8313 -7.37924 -6.40217
LeftFoot  -12.6992 -0.0717802 -11.8089
LeftToes  -6.27559e-011 -2.10356e-011 8.24929e-012
3
root  -5.72893 37.972 20.8347 167.875 74.8798 171.437
RightUpLeg  6.77923 -20.1576 -25.7779
RightLeg  33.5716 1.28541 0.705451
RightFoot  -8.09487 -0.765576 23.5974
RightToes  -1.74623e-010 0 -2.59999e-017
Spine  3.65289 3.28544 3.94975
Spine1  17.8599 5.36078 -6.56087
HEad  -35.6277 50.5906 -38.5082
LeftShoulder1  2.02326 -2.95838 -25.1321
LeftArm  10.1471 9.84915 -36.6236
LeftForeArm  -12.0924 -23.5667 -5.76351
LeftHand  0.64192 7.64978 31.9782
RightShoulder  3.55174 5.86567 32.0265
RightArm  -0.759657 -12.3045 42.5038
RightForeArm  143.773 70.8397 148.464
RightHand  1.49092 -14.4719 -19.2268
LeftUpLeg  -10.8079 14.1177 13.0759
LeftLeg  32.2064 -5.93994 -3.67187
LeftFoot  -6.62794 0.573994 -12.8335
LeftToes  -6.27559e-011 -2.10356e-011 8.24929e-012
4
root  -5.18949 39.5904 20.9298 170.209 73.786 173.501
RightUpLeg  7.04877 -16.5549 -22.1449
RightLeg  29.5219 -2.76902 -1.92735
RightFoot  3.10027 -2.01832 16.0033
RightToes  -1.74623e-010 0 -2.59999e-017
Spine  2.05157 3.32669 2.88007
Spine1  16.4996 4.84369 -5.09487
HEad  -30.8698 52.5167 -35.9096
LeftShoulder1  1.89419 -2.61524 -24.7597
LeftArm  9.47763 15.9371 -38.5686
LeftForeArm  -12.6492 -26.3722 -6.29457
LeftHand  0.295349 6.78081 24.6709
RightShoulder  3.7053 6.01634 33.0409
RightArm  2.91111 -19.1922 41.052
RightForeArm  142.238 68.6592 151.584
RightHand  0.492939 -11.93 -9.50526
LeftUpLeg  -7.46027 10.7986 12.8503
LeftLeg  23.561 -3.74805 -1.44989
LeftFoot  4.9294 1.97739 -13.9865
LeftToes  -6.27559e-011 -2.10356e-011 8.24929e-012
5
root  -4.803 40.7889 21.051 170.483 73.7728 173.063
RightUpLeg  6.0571 -15.0552 -20.4038
RightLeg  26.7612 0.0715878 -0.198174
RightFoot  6.425 -1.58757 10.357
RightToes  -1.74623e-010 0 -2.59999e-017
Spine  0.50836 3.2708 2.92864
Spine1  15.6539 5.03626 -5.99918
HEad  -28.6435 53.8178 -33.7858
LeftShoulder1  1.86239 -2.57652 -24.4189
LeftArm  7.77878 21.0962 -38.8025
LeftForeArm  -6.06266 -29.4801 -6.72607
LeftHand  -0.0089337 5.33358 11.5591
RightShoulder  3.74598 6.09753 33.1345
RightArm  6.2784 -23.18 39.5218
RightForeArm  145.377 65.8495 155.391
RightHand  -0.0813084 -8.86182 1.17505
LeftUpLeg  -5.67255 10.3267 12.0851
LeftLeg  17.2794 0.414895 0.299913
LeftFoot  15.2909 2.64063 -11.5305
LeftToes  -6.27559e-011 -2.10356e-011 8.24929e-012
6
root  -4.56706 41.3899 21.1546 171.038 73.5318 173.705
RightUpLeg  6.25597 -15.9768 -20.2547
RightLeg  23.6211 5.35801 2.33101
RightFoot  5.95351 -2.15222 14.3285
RightToes  -1.74623e-010 0 -2.59999e-017
Spine  -0.151787 3.24341 4.01018
Spine1  16.1255 5.34855 -6.77557
HEad  -28.8239 53.5081 -33.6437
LeftShoulder1  1.92046 -2.84236 -24.0352
LeftArm  7.25884 23.7419 -39.8168
LeftForeArm  1.00943 -32.6024 -7.15028
LeftHand  -0.169752 2.9022 7.19435
RightShoulder  3.5035 5.89589 31.3786
RightArm  8.32686 -24.2768 39.1485
RightForeArm  150.357 62.2639 159.271
RightHand  -0.0541405 -5.83052 2.50513
LeftUpLeg  -4.796 9.95016 11.639
LeftLeg  14.6566 3.08428 0.634588
LeftFoot  17.8498 2.32083 -9.28574
LeftToes  -6.27559e-011 -2.10356e-011 8.24929e-012
7
root  -4.45885 41.4359 21.3245 172.276 73.1895 175.627
RightUpLeg  6.64987 -16.7667 -19.7463
RightLeg  19.9088 5.65523 2.07508
RightFoot  8.25384 -2.96595 17.3887
RightToes  -1.74623e-010 0 -2.59999e-017
Spine  0.447737 3.31827 5.00451
Spine1  16.7359 5.54168 -6.50226
HEad  -29.6251 52.6679 -34.4299
LeftShoulder1  1.94891 -3.02066 -23.6243
LeftArm  9.10333 23.134 -41.039
LeftForeArm  5.27068 -34.7162 -7.47956
LeftHand  -0.216326 2.50167 8.37516
RightShoulder  3.27204 5.63565 29.8922
RightArm  7.65304 -22.0976 37.3799
RightForeArm  149.188 59.3192 161.403
RightHand  -0.0282422 -5.48741 -0.495608
LeftUpLeg  -4.28612 10.6206 11.8431
LeftLeg  14.8109 -1.88392 -0.793898
LeftFoot  15.4553 2.59378 -11.2767
LeftToes  -6.27559e-011 -2.10356e-011 8.24929e-012
8
root  -4.4454 40.8204 21.5477 172.478 73.2853 176.275
RightUpLeg  5.1902 -16.2906 -18.9783
RightLeg  19.9834 2.554 0.817908
RightFoot  7.57932 -2.55187 15.5433
RightToes  -1.74623e-010 0 -2.59999e-017
Spine  2.20123 3.33738 5.29938
Spine1  15.5086 5.63249 -6.33655
HEad  -29.2584 52.5747 -33.7227
LeftShoulder1  1.93775 -3.02796 -23.4092
LeftArm  9.31996 22.125 -41.3207
LeftForeArm  9.3512 -36.7324 -7.80846
LeftHand  -0.160935 3.34303 8.46273
RightShoulder  3.17946 5.54932 29.1963
RightArm  4.30937 -18.027 35.2821
RightForeArm  144.731 59.8311 160.652
RightHand  -0.0248497 -5.67703 -1.78256
LeftUpLeg  -4.64673 11.9445 11.8274
LeftLeg  17.5128 -6.74699 -2.12228
LeftFoot  10.8663 2.4654 -12.8587
LeftToes  -6.27559e-011 -2.10356e-011 8.24929e-012
9
root  -4.53583 39.5304 21.8685 172.048 72.6139 176.027
RightUpLeg  2.75267 -15.8528 -18.7855
RightLeg  25.7687 1.38452 0.525441
RightFoot  -1.75513 -1.36061 16.181
RightToes  -1.74623e-010 0 -2.59999e-017
Spine  4.0624 3.00834 4.56817
Spine1  14.2769 5.14225 -6.22096
HEad  -30.1883 51.8368 -33.6026
LeftShoulder1  1.9547 -3.07292 -23.467
LeftArm  8.72329 19.9822 -41.0971
LeftForeArm  10.0294 -38.1839 -8.19441
LeftHand  -0.17052 3.36312 9.07294
RightShoulder  3.05714 5.42349 28.2981
RightArm  -0.438532 -12.3046 33.9078
RightForeArm  139.07 63.276 157.307
RightHand  -0.0310255 -5.27289 -3.52571
LeftUpLeg  -7.97634 11.5645 11.5564
LeftLeg  25.0098 -4.97618 -2.15886
LeftFoot  2.5129 1.33764 -11.0636
LeftToes  -6.27559e-011 -2.10356e-011 8.24929e-012
10
root  -4.71911 37.9826 22.2462 173.476 71.117 177.794
RightUpLeg  1.19262 -17.1787 -18.8247
RightLeg  32.783 2.82971 1.73783
RightFoot  -13.0875 0.161467 17.2283
RightToes  -1.74623e-010 0 -2.59999e-017
Spine  5.09617 2.43379 4.51986
Spine1  15.3742 4.42959 -6.13048
HEad  -34.1307 49.501 -35.8618
LeftShoulder1  2.04603 -3.21016 -24.2575
LeftArm  10.7605 13.4936 -40.0707
LeftForeArm  6.89828 -36.6752 -7.94332
LeftHand  -0.210197 3.35377 11.2989
RightShoulder  3.05607 5.34613 28.5955
RightArm  -5.64118 -4.24539 31.3448
RightForeArm  131.295 68.4646 150.432
RightHand  0.118533 -7.3371 -8.54037
LeftUpLeg  -13.2168 10.904 12.3313
LeftLeg  34.8626 -3.48406 -2.27557
LeftFoot  -6.12245 0.476426 -9.7562
LeftToes  -6.27559e-011 -2.10356e-011 8.24929e-012
11
root  -4.73014 37.215 22.4837 175.444 70.6888 -179.861
RightUpLeg  1.32366 -18.948 -18.7136
RightLeg  35.0152 4.29195 2.97681
RightFoot  -18.1992 0.831399 15.8654
RightToes  -1.74623e-010 0 -2.59999e-017
Spine  4.73006 2.36505 5.73605
Spine1  17.3556 4.54221 -6.45782
HEad  -36.0299 47.8388 -36.6961
LeftShoulder1  2.12211 -3.2763 -25.1247
LeftArm  13.6896 6.99494 -39.9271
LeftForeArm  6.44803 -32.7652 -6.89066
LeftHand  -0.0729855 4.93406 15.6107
RightShoulder  3.28504 5.57394 30.283
RightArm  -8.80674 0.967464 30.4334
RightForeArm  127.185 74.0371 138.834
RightHand  0.850346 -12.3063 -14.5622
LeftUpLeg  -14.8322 10.8477 13.7308
LeftLeg  38.4798 -4.09266 -3.08915
LeftFoot  -10.3815 0.144639 -10.1405
LeftToes  -6.27559e-011 -2.10356e-011 8.24929e-012
